<svg width="24" height="31" viewBox="0 0 24 31" fill="none" xmlns="http://www.w3.org/2000/svg">
<path d="M20 7.53139H17V5.02093C17 3.62762 16.11 2.51047 15 2.51047H9C7.89 2.51047 7 3.62762 7 5.02093V7.53139H4C2.89 7.53139 2 8.64854 2 10.0418V23.8494C2 25.2427 2.89 26.3598 4 26.3598H20C21.11 26.3598 22 25.2427 22 23.8494V10.0418C22 8.64854 21.11 7.53139 20 7.53139ZM9 5.02093H15V7.53139H9V5.02093ZM20 23.8494H4V21.3389H20V23.8494ZM20 17.5732H4V10.0418H7V12.5523H9V10.0418H15V12.5523H17V10.0418H20V17.5732Z" fill="black"/>
</svg>
