<svg width="29" height="38" viewBox="0 0 29 38" fill="none" xmlns="http://www.w3.org/2000/svg">
<g clip-path="url(#clip0)">
<path d="M28.3654 15.6025H27.5598V9.32635C27.5598 9.04892 27.4749 8.78286 27.3239 8.5867C27.1728 8.39053 26.9679 8.28032 26.7542 8.28032H7.42091C7.23016 8.28436 7.0445 8.20037 6.89698 8.04329C6.74947 7.88622 6.64967 7.66626 6.61535 7.42258V7.04601C6.64967 6.80233 6.74947 6.58237 6.89698 6.4253C7.0445 6.26823 7.23016 6.18423 7.42091 6.18827H26.4159C26.6296 6.18827 26.8344 6.07807 26.9855 5.8819C27.1366 5.68573 27.2215 5.41967 27.2215 5.14225C27.2215 4.86482 27.1366 4.59876 26.9855 4.4026C26.8344 4.20643 26.6296 4.09622 26.4159 4.09622H7.42091C6.77997 4.09622 6.16528 4.42684 5.71207 5.01534C5.25885 5.60385 5.00424 6.40203 5.00424 7.2343C4.99859 7.35971 4.99859 7.48545 5.00424 7.61087V29.1276C5.0074 29.6908 5.09597 30.2477 5.26487 30.7664C5.43378 31.2852 5.67973 31.7557 5.98866 32.151C6.2976 32.5463 6.66348 32.8588 7.06541 33.0705C7.46734 33.2822 7.89745 33.3891 8.33119 33.3849H26.7542C26.9679 33.3849 27.1728 33.2747 27.3239 33.0786C27.4749 32.8824 27.5598 32.6163 27.5598 32.3389V26.0627H28.3654C28.579 26.0627 28.7839 25.9525 28.935 25.7564C29.086 25.5602 29.1709 25.2941 29.1709 25.0167V16.6485C29.1709 16.3711 29.086 16.105 28.935 15.9089C28.7839 15.7127 28.579 15.6025 28.3654 15.6025ZM25.9487 31.2929H8.33119C7.88314 31.2985 7.4515 31.0742 7.13018 30.6687C6.80885 30.2632 6.62383 29.7093 6.61535 29.1276V10.2469C6.87683 10.3452 7.14892 10.3876 7.42091 10.3724H25.9487V15.6025H20.3098C19.2416 15.6025 18.2171 16.1535 17.4617 17.1344C16.7064 18.1152 16.282 19.4455 16.282 20.8326C16.282 22.2197 16.7064 23.55 17.4617 24.5309C18.2171 25.5117 19.2416 26.0627 20.3098 26.0627H25.9487V31.2929ZM27.5598 23.9707H20.3098C19.6689 23.9707 19.0542 23.6401 18.601 23.0516C18.1477 22.4631 17.8931 21.6649 17.8931 20.8326C17.8931 20.0004 18.1477 19.2022 18.601 18.6137C19.0542 18.0252 19.6689 17.6945 20.3098 17.6945H27.5598V23.9707Z" fill="black"/>
<path d="M18.5358 22.8201C19.2032 22.8201 19.7442 22.1176 19.7442 21.251C19.7442 20.3845 19.2032 19.682 18.5358 19.682C17.8685 19.682 17.3275 20.3845 17.3275 21.251C17.3275 22.1176 17.8685 22.8201 18.5358 22.8201Z" fill="black"/>
</g>
<defs>
<clipPath id="clip0">
<rect width="29" height="37.6569" fill="white" transform="translate(0 0.330536)"/>
</clipPath>
</defs>
</svg>
