<svg width="24" height="31" viewBox="0 0 24 31" fill="none" xmlns="http://www.w3.org/2000/svg">
<path d="M6.62 14.4184C8.06 17.9707 10.38 20.8703 13.21 22.6904L15.41 19.9289C15.68 19.59 16.08 19.477 16.43 19.6276C17.55 20.0921 18.76 20.3431 20 20.3431C20.55 20.3431 21 20.908 21 21.5983V25.9791C21 26.6695 20.55 27.2343 20 27.2343C10.61 27.2343 3 17.682 3 5.8954C3 5.20502 3.45 4.64017 4 4.64017H7.5C8.05 4.64017 8.5 5.20502 8.5 5.8954C8.5 7.46444 8.7 8.97071 9.07 10.3766C9.18 10.8159 9.1 11.3054 8.82 11.6569L6.62 14.4184Z" fill="black"/>
</svg>
